<?xml version="1.0" standalone="no"?>
<!DOCTYPE svg PUBLIC "-//W3C//DTD SVG 20010904//EN"
 "http://www.w3.org/TR/2001/REC-SVG-20010904/DTD/svg10.dtd">
<svg version="1.0" xmlns="http://www.w3.org/2000/svg"
 width="461.000000pt" height="541.000000pt" viewBox="0 0 461.000000 541.000000"
 preserveAspectRatio="xMidYMid meet">

<g transform="translate(0.000000,541.000000) scale(0.100000,-0.100000)"
fill="#ffffff" stroke="none">
<path d="M2348 4998 c-83 -124 -151 -214 -161 -216 -10 -2 -109 50 -220 116
-213 127 -273 159 -282 150 -6 -5 168 -525 180 -536 9 -9 1251 -9 1260 0 7 7
168 474 179 521 4 18 2 27 -5 27 -7 0 -98 -52 -203 -117 -256 -156 -251 -153
-268 -153 -14 0 -51 47 -233 298 -49 67 -92 122 -96 122 -5 0 -72 -96 -151
-212z"/>
<path d="M3004 4216 c-66 -30 -117 -82 -153 -154 -16 -32 -37 -64 -46 -72 -8
-7 -57 -17 -108 -21 -105 -9 -145 -23 -238 -85 -80 -53 -221 -199 -268 -277
-77 -130 -108 -260 -97 -405 7 -98 30 -171 92 -294 55 -109 55 -146 1 -73 -68
90 -125 220 -143 325 -43 253 62 498 305 705 39 33 71 63 71 67 0 11 -51 -7
-125 -44 -268 -135 -418 -387 -402 -672 7 -130 28 -207 88 -333 41 -86 62
-116 139 -197 120 -125 193 -173 400 -262 233 -99 296 -138 410 -253 108 -109
140 -156 283 -413 56 -101 107 -183 112 -183 20 0 53 87 65 172 26 184 -3 358
-82 490 -44 73 -171 202 -343 348 -227 193 -313 294 -369 435 -41 102 -28 281
30 424 25 61 50 103 58 95 2 -2 -4 -47 -15 -99 -22 -111 -24 -173 -7 -238 15
-62 96 -141 204 -201 207 -115 270 -172 350 -315 59 -105 81 -121 165 -113 65
6 145 51 193 108 28 33 29 35 22 122 -5 69 -19 128 -70 285 -35 108 -78 258
-95 333 -17 75 -38 155 -46 179 -30 84 -94 152 -244 256 l-23 17 61 54 c33 30
61 63 61 73 0 52 -87 203 -131 225 -37 20 -45 19 -105 -9z m101 -128 c-4 -18
-11 -42 -15 -53 -12 -30 -71 -108 -77 -101 -8 7 78 186 89 186 6 0 6 -14 3
-32z m-595 -635 c-70 -242 -72 -374 -10 -544 16 -45 28 -84 26 -86 -6 -7 -57
67 -76 112 -48 112 -50 255 -5 422 24 89 81 220 91 210 3 -3 -9 -54 -26 -114z
m736 -5 c71 -74 79 -108 25 -108 -55 0 -89 20 -110 64 -20 41 -28 96 -15 109
11 11 57 -19 100 -65z"/>
<path d="M3196 3421 c-9 -15 4 -40 25 -46 38 -12 55 26 20 45 -24 12 -38 13
-45 1z"/>
<path d="M2537 4159 c-115 -13 -257 -49 -354 -91 -159 -70 -285 -170 -455
-365 -111 -128 -174 -164 -299 -171 -46 -3 -79 -9 -79 -15 0 -29 55 -87 100
-106 102 -44 184 -20 282 83 34 36 64 64 66 61 9 -9 -62 -106 -105 -145 -24
-21 -86 -67 -136 -102 -114 -77 -191 -153 -220 -215 -18 -39 -22 -66 -22 -148
l0 -100 74 -138 c63 -119 73 -146 73 -189 0 -57 -22 -95 -68 -117 -25 -12 -34
-12 -71 1 -46 17 -60 10 -44 -21 24 -44 131 -54 201 -18 59 29 85 75 84 147
-1 53 -13 90 -79 249 -25 59 -27 73 -24 176 4 111 4 112 44 171 45 68 57 56
25 -25 -25 -65 -28 -190 -4 -247 9 -21 51 -99 94 -174 116 -203 148 -308 118
-395 -20 -60 -64 -85 -151 -85 l-71 0 29 -30 c105 -110 256 -26 279 155 13
101 -8 188 -84 343 l-70 143 0 167 c0 189 2 193 89 329 27 43 70 126 95 185
108 260 285 434 521 514 69 23 101 27 230 31 170 6 186 11 215 76 16 35 17 44
6 55 -17 18 -174 24 -289 11z"/>
<path d="M1775 3190 c-11 -22 -17 -76 -22 -202 l-6 -173 63 -150 c94 -224 119
-306 132 -427 15 -139 3 -202 -51 -258 -34 -36 -43 -40 -86 -40 l-47 0 6 -32
c8 -43 52 -86 93 -94 79 -15 196 76 250 192 25 54 25 58 18 210 l-7 156 259
-131 c298 -150 334 -178 390 -299 18 -40 33 -78 33 -85 0 -6 -21 18 -47 53
-93 128 -130 156 -343 257 -107 50 -204 93 -215 95 -18 3 -21 -4 -27 -83 -13
-182 -64 -284 -195 -393 -69 -56 -86 -77 -128 -156 -54 -102 -105 -166 -316
-395 -260 -283 -313 -353 -400 -530 -46 -93 -79 -205 -79 -265 0 -28 -18 -46
210 204 135 149 349 355 525 506 61 52 196 179 302 282 105 102 203 194 217
203 49 33 38 7 -19 -41 -31 -27 -86 -83 -123 -124 -36 -41 -188 -201 -338
-355 -261 -268 -321 -337 -411 -470 -59 -89 -116 -195 -105 -195 6 0 38 39 73
86 112 156 237 274 384 364 149 91 249 120 575 166 213 30 291 46 395 80 140
46 158 64 116 115 -19 24 -22 24 -166 21 -164 -4 -235 3 -262 24 -16 13 -7 15
87 13 58 -2 133 -2 168 -1 56 2 62 4 62 24 0 32 -43 99 -86 134 -22 17 -82 59
-134 94 -113 75 -170 120 -170 132 0 17 45 -4 150 -70 154 -97 204 -135 317
-243 56 -53 141 -123 187 -155 l86 -58 26 25 26 24 70 -75 c204 -220 220 -247
198 -329 -14 -52 -109 -152 -194 -201 -47 -28 -61 -43 -72 -75 -12 -37 -44
-72 -86 -96 -16 -9 -18 -4 -18 40 0 66 -7 81 -39 81 -55 0 -127 -45 -186 -117
-92 -110 -119 -153 -106 -166 8 -8 67 -12 184 -12 167 0 174 1 228 27 84 42
265 213 366 348 23 30 58 88 79 129 l37 74 -17 71 c-9 39 -32 121 -51 182 -29
94 -45 125 -108 215 -89 128 -146 221 -248 407 -98 178 -207 339 -279 413 -61
62 -139 105 -327 182 -237 98 -352 166 -477 286 -132 128 -196 240 -241 424
-52 212 -52 211 -80 157z"/>
<path d="M3978 2276 c-60 -16 -395 -217 -459 -274 -28 -25 -54 -60 -63 -85
-18 -48 -46 -203 -46 -253 l0 -34 63 30 62 31 -40 -37 c-22 -20 -61 -56 -87
-80 -57 -51 -62 -69 -17 -60 61 12 223 137 423 326 147 139 206 190 221 190
21 0 74 -58 101 -112 14 -28 23 -52 21 -54 -2 -3 -26 21 -52 51 -26 31 -50 54
-53 51 -3 -3 27 -75 67 -161 68 -147 111 -276 111 -335 0 -14 -9 -62 -21 -106
-12 -47 -18 -93 -15 -114 7 -44 -8 -99 -35 -134 -28 -36 -39 -33 -28 9 6 19 7
40 4 45 -9 15 -58 12 -83 -6 -45 -31 -55 -70 -56 -206 -1 -69 2 -129 6 -133
16 -16 200 106 257 171 20 23 74 96 119 162 75 110 82 125 82 169 0 90 -19
164 -120 471 -116 350 -156 444 -200 467 -43 22 -108 27 -162 11z"/>
<path d="M790 1809 c-82 -16 -219 -92 -289 -161 -81 -80 -114 -128 -151 -221
-25 -64 -31 -98 -44 -257 -18 -220 -32 -260 -121 -328 -30 -24 -55 -48 -55
-53 0 -15 64 -39 102 -39 48 0 131 43 161 82 48 63 65 117 77 251 20 230 60
336 171 448 119 123 291 158 429 89 70 -36 148 -132 171 -212 10 -38 -3 -28
-42 30 -45 67 -79 101 -120 122 -116 60 -289 15 -394 -102 -91 -100 -134 -209
-161 -410 -22 -162 -40 -209 -121 -303 l-66 -78 80 5 c91 5 135 25 170 76 26
40 37 86 63 288 32 237 65 322 149 377 110 73 216 53 262 -47 24 -53 24 -103
-1 -143 -21 -36 -55 -49 -102 -39 -38 8 -57 31 -58 73 l0 31 29 -29 c35 -35
55 -37 75 -7 46 66 -10 148 -101 148 -95 0 -157 -101 -133 -216 15 -71 46
-113 105 -146 74 -40 123 -45 198 -18 185 67 301 212 282 353 -18 127 -81 267
-148 323 -52 44 -185 101 -264 113 -81 12 -90 12 -153 0z"/>
<path d="M2640 1084 c-74 -19 -200 -45 -280 -59 -333 -57 -494 -113 -685 -240
-80 -54 -143 -110 -133 -120 3 -3 86 25 184 63 221 86 450 161 611 201 175 44
448 149 467 180 11 16 -14 13 -164 -25z"/>
</g>
</svg>
